<svg xmlns="http://www.w3.org/2000/svg"
    xmlns:xlink="http://www.w3.org/1999/xlink" width="69px" height="69.14893617021276px" isFromKittenPainter="true" data-paper-data="{&quot;version&quot;:&quot;1.0&quot;}">
    <g data-paper-data="{&quot;isWorkLayer&quot;:true,&quot;backgroundColor&quot;:&quot;#ffffff&quot;}" fill="none" fill-rule="nonzero" stroke="none" stroke-width="1" stroke-linecap="butt" stroke-linejoin="miter" stroke-miterlimit="10" stroke-dasharray="" stroke-dashoffset="0" font-family="none" font-weight="none" font-size="none" text-anchor="none" style="mix-blend-mode: normal" visibility="visible" transform="scale(1.0638297872340425) translate(-612,-388)">
        <defs defsFrom="KittenPainter"/>
        <path d="M619.965,388.965l0.035,0.0001l0.035,-0.0001l0,0.0002l3.465,0.0099l3.465,-0.0099l0,-0.0002l0.035,0.0001l0.035,-0.0001l0,0.0002l3.465,0.0099l3.465,-0.0099l0,-0.0002l0.035,0.0001l0.035,-0.0001l0,0.0002l3.465,0.0099l3.465,-0.0099l0,-0.0002l0.035,0.0001l0.035,-0.0001l0,0.0002l3.465,0.0099l3.465,-0.0099l0,-0.0002l0.035,0.0001l0.035,-0.0001l0,0.0002l3.465,0.0099l3.465,-0.0099l0,-0.0002l0.035,0.0001l0.035,-0.0001l0,0.0002l3.465,0.0099l3.465,-0.0099l0,-0.0002l0.035,0.0001l0.035,-0.0001l0,0.0002l3.465,0.0099l3.465,-0.0099l0,-0.0002l0.035,0.0001l0.035,-0.0001l0,0.0002l3.465,0.0099l3.535,-0.0101l-0.0101,3.535l0.0099,3.465l0.0002,0l-0.0001,0.035l0.0001,0.035l-0.0002,0l-0.0099,3.465l0.0099,3.465l0.0002,0l-0.0001,0.035l0.0001,0.035l-0.0002,0l-0.0099,3.465l0.0099,3.465l0.0002,0l-0.0001,0.035l0.0001,0.035l-0.0002,0l-0.0099,3.465l0.0099,3.465l0.0002,0l-0.0001,0.035l0.0001,0.035l-0.0002,0l-0.0099,3.465l0.0099,3.465l0.0002,0l-0.0001,0.035l0.0001,0.035l-0.0002,0l-0.0099,3.465l0.0099,3.465l0.0002,0l-0.0001,0.035l0.0001,0.035l-0.0002,0l-0.0099,3.465l0.0099,3.465l0.0002,0l-0.0001,0.035l0.0001,0.035l-0.0002,0l-0.0099,3.465l0.0099,3.465l0.0002,0l-0.0001,0.035l0.0001,0.035l-0.0002,0l-0.0099,3.465l0.0101,3.535l-3.535,-0.0101l-3.465,0.0099l0,0.0002l-0.035,-0.0001l-0.035,0.0001l0,-0.0002l-3.465,-0.0099l-3.465,0.0099l0,0.0002l-0.035,-0.0001l-0.035,0.0001l0,-0.0002l-3.465,-0.0099l-3.465,0.0099l0,0.0002l-0.035,-0.0001l-0.035,0.0001l0,-0.0002l-3.465,-0.0099l-3.465,0.0099l0,0.0002l-0.035,-0.0001l-0.035,0.0001l0,-0.0002l-3.465,-0.0099l-3.465,0.0099l0,0.0002l-0.035,-0.0001l-0.035,0.0001l0,-0.0002l-3.465,-0.0099l-3.465,0.0099l0,0.0002l-0.035,-0.0001l-0.035,0.0001l0,-0.0002l-3.465,-0.0099l-3.465,0.0099l0,0.0002l-0.035,-0.0001l-0.035,0.0001l0,-0.0002l-3.465,-0.0099l-3.465,0.0099l0,0.0002l-0.035,-0.0001l-0.035,0.0001l0,-0.0002l-3.465,-0.0099l-3.535,0.0101l0.0101,-3.535l-0.0099,-3.465l-0.0002,0l0.0001,-0.035l-0.0001,-0.035l0.0002,0l0.0099,-3.465l-0.0099,-3.465l-0.0002,0l0.0001,-0.035l-0.0001,-0.035l0.0002,0l0.0099,-3.465l-0.0099,-3.465l-0.0002,0l0.0001,-0.035l-0.0001,-0.035l0.0002,0l0.0099,-3.465l-0.0099,-3.465l-0.0002,0l0.0001,-0.035l-0.0001,-0.035l0.0002,0l0.0099,-3.465l-0.0099,-3.465l-0.0002,0l0.0001,-0.035l-0.0001,-0.035l0.0002,0l0.0099,-3.465l-0.0099,-3.465l-0.0002,0l0.0001,-0.035l-0.0001,-0.035l0.0002,0l0.0099,-3.465l-0.0099,-3.465l-0.0002,0l0.0001,-0.035l-0.0001,-0.035l0.0002,0l0.0099,-3.465l-0.0099,-3.465l-0.0002,0l0.0001,-0.035l-0.0001,-0.035l0.0002,0l0.0099,-3.465l-0.0101,-3.535l3.535,0.0101l3.465,-0.0099zM620.0249,406.5l0.0099,3.465l0.0002,0l-0.0001,0.035l0.0001,0.035l-0.0002,0l-0.0099,3.465l0.0097,3.3947l-0.1403,-0.0004l0.0103,3.6057l-0.0103,3.6057l0.1403,-0.0004l-0.0097,3.3947l0.0099,3.465l0.0002,0l-0.0001,0.035l0.0001,0.035l-0.0002,0l-0.0099,3.465l0.0099,3.465l0.0002,0l-0.0001,0.035l0.0001,0.035l-0.0002,0l-0.0099,3.465l0.0099,3.465l0.0002,0l0,0.0002l3.465,0.0099l3.465,-0.0099l0,-0.0002l0.035,0.0001l0.035,-0.0001l0,0.0002l3.465,0.0099l3.465,-0.0099l0,-0.0002l0.035,0.0001l0.035,-0.0001l0,0.0002l3.465,0.0099l3.465,-0.0099l0,-0.0002l0.035,0.0001l0.035,-0.0001l0,0.0002l3.465,0.0099l3.465,-0.0099l0,-0.0002l0.035,0.0001l0.035,-0.0001l0,0.0002l3.465,0.0099l3.465,-0.0099l0,-0.0002l0.035,0.0001l0.035,-0.0001l0,0.0002l3.465,0.0099l3.465,-0.0099l0,-0.0002l0.035,0.0001l0.035,-0.0001l0,0.0002l3.465,0.0099l3.465,-0.0099l0,-0.0002l0.0002,0l0.0099,-3.465l-0.0099,-3.465l-0.0002,0l0.0001,-0.035l-0.0001,-0.035l0.0002,0l0.0099,-3.465l-0.0099,-3.465l-0.0002,0l0.0001,-0.035l-0.0001,-0.035l0.0002,0l0.0099,-3.465l-0.0099,-3.465l-0.0002,0l0.0001,-0.035l-0.0001,-0.035l0.0002,0l0.0099,-3.465l-0.0099,-3.465l-0.0002,0l0.0001,-0.035l-0.0001,-0.035l0.0002,0l0.0099,-3.465l-0.0099,-3.465l-0.0002,0l0.0001,-0.035l-0.0001,-0.035l0.0002,0l0.0099,-3.465l-0.0099,-3.465l-0.0002,0l0.0001,-0.035l-0.0001,-0.035l0.0002,0l0.0099,-3.465l-0.0099,-3.465l-0.0002,0l0,-0.0002l-3.465,-0.0099l-3.465,0.0099l0,0.0002l-0.035,-0.0001l-0.035,0.0001l0,-0.0002l-3.465,-0.0099l-3.465,0.0099l0,0.0002l-0.035,-0.0001l-0.035,0.0001l0,-0.0002l-3.465,-0.0099l-3.465,0.0099l0,0.0002l-0.035,-0.0001l-0.035,0.0001l0,-0.0002l-3.465,-0.0099l-3.3947,0.0097l0.0004,-0.1403l-3.6057,0.0103l-3.3943,-0.0097l0,-0.0006l-0.1057,0.0003l-0.1057,-0.0003l0,0.0006l-3.3943,0.0097l-3.3943,-0.0097l0,-0.0006l-0.1057,0.0003l-0.1057,-0.0003l0,0.0006l-3.3943,0.0097l-3.6057,-0.0103l0.0103,3.6057l-0.0103,3.6057l0.1403,-0.0004z" fill="#26d578"/>
        <path d="M626.965,402.965l3.535,0.0101l3.535,-0.0101l-0.0101,3.535l0.0101,3.535l-3.535,-0.0101l-3.535,0.0101l0.0101,-3.535z" data-paper-data="{&quot;brushShape&quot;:&quot;rect&quot;}" fill="#000000"/>
        <path d="M654.965,402.965l3.535,0.0101l3.535,-0.0101l-0.0101,3.535l0.0101,3.535l-3.535,-0.0101l-3.535,0.0101l0.0101,-3.535z" data-paper-data="{&quot;brushShape&quot;:&quot;rect&quot;}" fill="#000000"/>
        <path d="M662.0249,434.5l0.0101,3.535l-3.535,-0.0101l-3.535,0.0101l0.0101,-3.535l-0.0097,-3.3945l3.5346,-0.0101l3.5346,0.0101z" fill="#000000"/>
        <path d="M651.5,431.0249l-3.465,0.0099l0,0.0002l-0.035,-0.0001l-0.035,0.0001l0,-0.0002l-3.465,-0.0099l-3.465,0.0099l0,0.0002l-0.035,-0.0001l-0.035,0.0001l0,-0.0002l-3.465,-0.0099l-3.3945,0.0097l-0.0101,-3.5346l0.0097,-3.3943l0.0006,0l0,-0.0006l3.3943,-0.0097l3.3943,0.0097l0,0.0006l0.1057,-0.0003l0.1057,0.0003l0,-0.0006l3.3943,-0.0097l3.3943,0.0097l0,0.0006l0.1057,-0.0003l0.1057,0.0003l0,-0.0006l3.3943,-0.0097l3.3949,0.0097l0.0097,3.3949l-0.0101,3.5346z" fill="#000000"/>
        <path d="M634.0249,434.5l0.0101,3.535l-3.535,-0.0101l-3.535,0.0101l0.0101,-3.535l-0.0097,-3.3945l3.5346,-0.0101l3.5346,0.0101z" fill="#000000"/>
        <path d="M619.965,395.965l3.535,0.0101l3.465,-0.0099l0,-0.0002l0.035,0.0001l0.035,-0.0001l0,0.0002l3.465,0.0099l3.465,-0.0099l0,-0.0002l0.035,0.0001l0.035,-0.0001l0,0.0002l3.465,0.0099l3.465,-0.0099l0,-0.0002l0.035,0.0001l0.035,-0.0001l0,0.0002l3.465,0.0099l3.465,-0.0099l0,-0.0002l0.035,0.0001l0.035,-0.0001l0,0.0002l3.465,0.0099l3.465,-0.0099l0,-0.0002l0.035,0.0001l0.035,-0.0001l0,0.0002l3.465,0.0099l3.465,-0.0099l0,-0.0002l0.035,0.0001l0.035,-0.0001l0,0.0002l3.465,0.0099l3.535,-0.0101l-0.0101,3.535l0.0099,3.465l0.0002,0l-0.0001,0.035l0.0001,0.035l-0.0002,0l-0.0099,3.465l0.0099,3.465l0.0002,0l-0.0001,0.035l0.0001,0.035l-0.0002,0l-0.0099,3.465l0.0099,3.465l0.0002,0l-0.0001,0.035l0.0001,0.035l-0.0002,0l-0.0099,3.465l0.0099,3.465l0.0002,0l-0.0001,0.035l0.0001,0.035l-0.0002,0l-0.0099,3.465l0.0099,3.465l0.0002,0l-0.0001,0.035l0.0001,0.035l-0.0002,0l-0.0099,3.465l0.0099,3.465l0.0002,0l-0.0001,0.035l0.0001,0.035l-0.0002,0l-0.0099,3.465l0.0101,3.535l-3.535,-0.0101l-3.465,0.0099l0,0.0002l-0.035,-0.0001l-0.035,0.0001l0,-0.0002l-3.465,-0.0099l-3.465,0.0099l0,0.0002l-0.035,-0.0001l-0.035,0.0001l0,-0.0002l-3.465,-0.0099l-3.465,0.0099l0,0.0002l-0.035,-0.0001l-0.035,0.0001l0,-0.0002l-3.465,-0.0099l-3.465,0.0099l0,0.0002l-0.0002,0l-0.0099,3.465l0.0101,3.535l-3.535,-0.0101l-3.465,0.0099l0,0.0002l-0.035,-0.0001l-0.035,0.0001l0,-0.0002l-3.465,-0.0099l-3.535,0.0101l0.0101,-3.535l-0.0099,-3.465l-0.0002,0l0,-0.0002l-3.465,-0.0099l-3.465,0.0099l0,0.0002l-0.035,-0.0001l-0.035,0.0001l0,-0.0002l-3.465,-0.0099l-3.535,0.0101l0.0101,-3.535l-0.0099,-3.465l-0.0002,0l0.0001,-0.035l-0.0001,-0.035l0.0002,0l0.0099,-3.465l-0.0101,-3.535l3.535,0.0101l3.465,-0.0099l0,-0.0002l0.0002,0l0.0099,-3.465l-0.0099,-3.465l-0.0002,0l0.0001,-0.035l-0.0001,-0.035l0.0002,0l0.0099,-3.465l-0.0099,-3.465l-0.0002,0l0.0001,-0.035l-0.0001,-0.035l0.0002,0l0.0099,-3.465l-0.0099,-3.465l-0.0002,0l0.0001,-0.035l-0.0001,-0.035l0.0002,0l0.0099,-3.465l-0.0099,-3.465l-0.0002,0l0.0001,-0.035l-0.0001,-0.035l0.0002,0l0.0099,-3.465zM627.035,431.035l-0.0002,0l-0.0099,3.465l0.0099,3.465l0.0002,0l0,0.0002l3.465,0.0099l3.465,-0.0099l0,-0.0002l0.0002,0l0.0099,-3.465l-0.0099,-3.4652l-3.4652,-0.0099l-3.465,0.0099zM655.035,437.965l0,0.0002l3.465,0.0099l3.465,-0.0099l0,-0.0002l0.0002,0l0.0099,-3.465l-0.0099,-3.465l-0.0002,0l0,-0.0002l-3.465,-0.0099l-3.4652,0.0099l-0.0099,3.4652l0.0099,3.465zM654.9751,427.5l-0.0099,-3.465l-0.0002,0l0,-0.0002l-3.465,-0.0099l-3.465,0.0099l0,0.0002l-0.035,-0.0001l-0.035,0.0001l0,-0.0002l-3.465,-0.0099l-3.465,0.0099l0,0.0002l-0.035,-0.0001l-0.035,0.0001l0,-0.0002l-3.465,-0.0099l-3.465,0.0099l0,0.0002l-0.0002,0l-0.0099,3.465l0.0099,3.4652l3.4652,0.0099l3.465,-0.0099l0,-0.0002l0.035,0.0001l0.035,-0.0001l0,0.0002l3.465,0.0099l3.465,-0.0099l0,-0.0002l0.035,0.0001l0.035,-0.0001l0,0.0002l3.465,0.0099l3.4652,-0.0099zM661.965,409.965l0.0002,0l0.0099,-3.465l-0.0099,-3.465l-0.0002,0l0,-0.0002l-3.465,-0.0099l-3.465,0.0099l0,0.0002l-0.0002,0l-0.0099,3.465l0.0099,3.465l0.0002,0l0,0.0002l3.465,0.0099l3.465,-0.0099zM633.965,403.035l0,-0.0002l-3.465,-0.0099l-3.465,0.0099l0,0.0002l-0.0002,0l-0.0099,3.465l0.0099,3.465l0.0002,0l0,0.0002l3.465,0.0099l3.465,-0.0099l0,-0.0002l0.0002,0l0.0099,-3.465l-0.0099,-3.465z" data-paper-data="{&quot;brushShape&quot;:&quot;rect&quot;}" fill="#26d578"/>
    </g>
</svg>